# xmcd CD database file
#
# Track frame offsets:
#	187
#	22755
#	44385
#
# Disc length: 889 seconds
#
# Revision: 2
# Processed by: cddbd v1.5.2PL0 Copyright (c) Steve Scherf et al.
# Submitted via: CDex 1.70beta2
#
DISCID=17037703
DTITLE=真行寺恵里 - IN MY DEAM
DYEAR=1998
DGENRE=Animetion
TTITLE0=IN MY DREAM
TTITLE1=WAITING FOR YOUR LOVE
TTITLE2=IN MY DREAM <karaoke>
EXTD=YEAR: 1998
EXTT0=
EXTT1=
EXTT2=
PLAYORDER=
